<?xml version="1.0" encoding="UTF-8"?><svg id="Calque_2" xmlns="http://www.w3.org/2000/svg" viewBox="0 0 406 490"><defs><style>.cls-1{fill:#c2020d;}</style></defs><g id="Layer_1"><path class="cls-1" d="M399.34,34.07c3.8-.35,6.66-3.47,6.66-7.28V7.31c0-4.03-3.28-7.31-7.31-7.31h-24.94c-3.79,0-6.99,2.96-7.28,6.75-.91,11.93-11,21.28-22.97,21.28s-22.05-9.35-22.96-21.27c-.29-3.8-3.49-6.76-7.28-6.76h-31.97c-3.8,0-7,2.97-7.28,6.76-.91,11.92-11,21.27-22.97,21.27s-22.06-9.35-22.97-21.28c-.29-3.79-3.48-6.75-7.28-6.75h-31.97c-3.79,0-6.99,2.97-7.28,6.76-.91,11.92-10.99,21.27-22.96,21.27s-22.06-9.35-22.97-21.27c-.29-3.79-3.49-6.76-7.28-6.76h-31.97c-3.79,0-6.99,2.97-7.28,6.76-.91,11.92-11,21.27-22.97,21.27s-22.05-9.35-22.96-21.27c-.29-3.79-3.49-6.76-7.28-6.76H7.31C3.28,0,0,3.28,0,7.31v19.44c0,3.8,2.97,7,6.76,7.28,11.93.9,21.28,11,21.28,22.99s-9.35,22.09-21.27,22.99c-3.8.29-6.77,3.49-6.77,7.29v31.98c0,3.8,2.97,7,6.76,7.29,11.93.9,21.28,11,21.28,22.99s-9.35,22.09-21.28,22.99c-3.79.28-6.76,3.48-6.76,7.28v31.99c0,3.8,2.97,7,6.76,7.28,11.93.9,21.28,11,21.28,22.99s-9.35,22.09-21.27,22.99c-3.8.29-6.77,3.49-6.77,7.29v31.98c0,3.8,2.97,7,6.76,7.29,11.93.9,21.28,11,21.28,22.99s-9.35,22.09-21.28,22.99c-3.79.28-6.76,3.48-6.76,7.28v31.99c0,3.8,2.97,7,6.76,7.28,11.93.9,21.28,11,21.28,22.99s-9.35,22.09-21.27,22.99c-3.8.29-6.77,3.49-6.77,7.29v25.24c0,4.04,3.28,7.32,7.31,7.32h28.55c3.8,0,7-2.98,7.28-6.77.9-11.94,10.99-21.29,22.97-21.29s22.07,9.35,22.97,21.29c.29,3.79,3.49,6.77,7.28,6.77h31.97c3.79,0,6.99-2.98,7.28-6.77.9-11.94,10.99-21.29,22.97-21.29s22.06,9.35,22.96,21.29c.29,3.79,3.49,6.77,7.29,6.77h31.96c3.8,0,7-2.98,7.28-6.77.9-11.94,10.99-21.29,22.97-21.29s22.07,9.35,22.97,21.29c.28,3.79,3.48,6.77,7.28,6.77h31.96c3.8,0,7-2.98,7.29-6.77.9-11.94,10.98-21.29,22.96-21.29s22.07,9.35,22.97,21.29c.29,3.79,3.49,6.77,7.28,6.77h24.94c4.03,0,7.31-3.29,7.31-7.32v-25.29c0-3.8-2.86-6.93-6.66-7.27-11.93-1.08-20.93-10.95-20.93-22.96s9-21.88,20.93-22.95c3.8-.35,6.66-3.47,6.66-7.28v-32.07c0-3.81-2.86-6.94-6.66-7.28-11.93-1.08-20.93-10.94-20.93-22.95s9-21.88,20.93-22.96c3.8-.34,6.66-3.47,6.66-7.27v-32.08c0-3.8-2.86-6.93-6.66-7.27-11.93-1.08-20.93-10.95-20.93-22.96s9-21.88,20.93-22.95c3.8-.35,6.66-3.47,6.66-7.28v-32.07c0-3.81-2.86-6.94-6.66-7.28-11.93-1.08-20.93-10.94-20.93-22.95s9-21.88,20.93-22.96c3.8-.34,6.66-3.47,6.66-7.27v-32.08c0-3.8-2.86-6.93-6.66-7.27-11.93-1.08-20.93-10.95-20.93-22.96s9-21.88,20.93-22.95ZM338.21,407.16c0,8.27-6.73,15-15,15H82.79c-8.27,0-15-6.73-15-15V82.83c0-8.27,6.73-15,15-15h240.42c8.27,0,15,6.73,15,15v324.33Z"/><path class="cls-1" d="M194.89,155.35c28.97-2.81,56.58,13.44,72.89,36.48,8.43-3.55,16.78-7.5,24.85-11.81,3.68-1.96,15.37-9.9,18.27-10.23,5.63-.65,10.68,7.52,8.63,12.59-.86,2.14-6.7,5.37-8.89,6.73-11.15,6.94-23.29,12.21-35.07,17.94,3.11,9.53,5.98,19.26,7.01,29.31,2.72,26.51-4.95,57.38-29.18,71.77-37.94,22.53-69.79-10.92-95.23-35.54-1.51-.68-10.8,3.57-13.1,4.2l5.88,8.08c5.62,6.58,12.08,12.61,19,17.82,3.15,2.37,15.67,9.56,16.95,11.5,3.16,4.78-1.37,14.15-7.19,13.9-2.63-.12-10.43-5.38-13-7.1-16.19-10.82-30.14-25.07-40.31-41.69-12.33-.38-28.29-5.59-32.05-18.71-4.28-14.92,5.29-24.8,19.54-26.71.81-6.98,1.2-13.89,2.65-20.78,5.83-27.84,22.77-49.44,52.55-52.32,2.78-.27,6.12.41,8.79-.13,5.36-1.1,10.01-4.61,17.02-5.29ZM251.35,198.7c.38-.4-2.58-3.92-3.06-4.47-9.54-10.96-24.34-19.48-38.78-21.74,8.65,8.28,12.33,17.81,11.7,29.83-.06,1.1-1.59,5.19-.28,5.29l30.41-8.91ZM182.58,177.58c-.67.18-4.43,4.13-5.1,4.99-8.51,10.85-7.64,21.52,6.5,25.76,2.98.89,15.24,2.98,17.39,1.49,1.32-.92,2.95-7.41,3.1-9.16.78-9.07-4.31-15.22-11.75-19.48-1.98-1.13-8.12-4.13-10.15-3.59ZM158.75,180.85c-13.96,4.69-21.95,19.38-25.28,33.01-.72,2.95-3.7,20.73-2.28,21.72,11.15,2.83,20.69,8.97,29.5,16.12,10.95-6.62,21.37-15.03,29.29-25.1-24.39-1.7-42.81-21.15-31.24-45.74ZM173.25,263.42c8.25,8.59,17.43,17.51,27.16,24.43,13.84,9.86,27.38,15.58,43.5,6.33,22.91-13.14,25.31-44.87,19.99-68.16-.57-2.51-2.48-10.13-3.69-11.93-.32-.47-.53-.93-1.22-.8-15.24,5.95-31.18,9.85-47.22,13.05-10.56,14.34-23.23,27.74-38.52,37.07ZM118.58,261.17l-2.5-10.07c-.48-.82-4.35.4-5.06,1.11-3.73,3.72,4.26,8.96,7.56,8.96ZM142.57,260.06c.24-1.03-.35-1.08-.93-1.58-.7-.61-7.02-4.43-7.44-3.99l2.21,6.45c1.29.9,4.51-1.04,6.16-.88Z"/></g></svg>